<?xml version="1.0" encoding="utf-8"?>
<!-- Generator: Adobe Illustrator 26.2.1, SVG Export Plug-In . SVG Version: 6.00 Build 0)  -->
<svg version="1.1" id="Layer_1" xmlns="http://www.w3.org/2000/svg" xmlns:xlink="http://www.w3.org/1999/xlink" x="0px" y="0px"
	 viewBox="0 0 181.1 43.7" style="enable-background:new 0 0 181.1 43.7;" xml:space="preserve">
<style type="text/css">
	.st0{fill:none;stroke:#000000;stroke-width:0.5;stroke-dasharray:3,2;}
	.st1{fill:#231F20;}
</style>
<g id="Crop_Marks">
	<line class="st0" x1="375.3" y1="-227.3" x2="375.3" y2="-254.5"/>
	<line class="st0" x1="94.5" y1="-227" x2="94.5" y2="-254.2"/>
	<line class="st0" x1="375.3" y1="414.9" x2="375.3" y2="387.6"/>
	<line class="st0" x1="96" y1="415.1" x2="96" y2="387.8"/>
	<line class="st0" x1="1279.7" y1="-226.8" x2="1279.7" y2="-254"/>
	<line class="st0" x1="999" y1="-226.5" x2="999" y2="-253.8"/>
	<line class="st0" x1="1279.7" y1="414.9" x2="1279.7" y2="387.6"/>
	<line class="st0" x1="999" y1="415.1" x2="999" y2="387.8"/>
	<path class="st1" d="M0,42.8l0.1-0.6h0.8c0.8,0,1.5-0.2,2.2-0.6c0.8-0.8,1.2-1.8,1.2-2.9l5.9-34.3c0.1-0.5,0.1-0.9,0.2-1.2
		c0-0.3,0.1-0.5,0.1-0.8c0.1-0.5-0.2-1.1-0.7-1.4C9.2,0.7,8.6,0.6,7.9,0.6H7.2L7.3,0h11.1c1.8,0,3.6,0.3,5.2,1.1
		c1.4,0.8,2.6,2,3.2,3.5c0.8,1.8,1.2,3.8,1.1,5.9c0,1.5-0.1,3-0.4,4.4c-0.3,1.4-0.7,2.7-1.3,4c-0.6,1.2-1.4,2.3-2.4,3.3
		c-1,1-2.2,1.7-3.5,2.2c-1.5,0.6-3.1,0.8-4.7,0.8h-3.3l-2.3,13c-0.1,0.4-0.2,0.9-0.2,1.3c0,0.3-0.1,0.7-0.1,1
		c-0.1,0.5,0.2,1.1,0.6,1.4c0.6,0.3,1.2,0.4,1.9,0.4h1.6l-0.1,0.6L0,42.8z M14.2,24.6c1.4,0,2.8-0.5,3.8-1.4c1.1-1.1,2-2.3,2.6-3.8
		c0.7-1.6,1.2-3.3,1.5-5.1c0.3-1.8,0.5-3.7,0.5-5.5c0.1-2.1-0.3-4.2-1.1-6.1c-0.7-1.4-2.1-2.2-3.6-2.1h-1.3l-4.1,24H14.2z"/>
	<path class="st1" d="M33.4,43.4c-1.2,0.1-2.4-0.4-3.3-1.3c-0.9-1-1.5-2.2-1.8-3.5c-0.4-1.7-0.6-3.5-0.6-5.3c0-2,0.2-4,0.5-6
		c0.3-2.1,0.8-4.2,1.5-6.2c0.6-2,1.5-3.8,2.5-5.6c0.9-1.6,2.2-2.9,3.6-4c1.4-1,3.1-1.6,4.8-1.5c1,0,2.1,0.2,3,0.7
		c0.8,0.4,1.5,0.9,2.1,1.5l3.5-1.5h0.4l-3.6,20.6c-0.1,0.6-0.2,1.3-0.3,2.2s-0.3,1.9-0.4,2.8c-0.1,0.8-0.2,1.6-0.2,2.4
		c0,0.7,0.1,1.4,0.4,2c0.2,0.5,0.7,0.7,1.2,0.7c0.5,0,0.9-0.2,1.3-0.5c0.5-0.4,1-0.9,1.3-1.4l0.2,0.6c-0.4,0.5-0.8,1-1.3,1.4
		c-0.5,0.5-1.1,0.9-1.8,1.2c-0.7,0.4-1.6,0.5-2.4,0.5c-1.1,0.1-2.1-0.4-2.8-1.3c-0.7-1.1-1.1-2.5-1-3.8c0-1,0.1-1.9,0.2-2.9
		c0.1-1,0.2-2,0.4-3.1h-0.2c-0.7,3-1.8,5.8-3.3,8.5C36.4,42.5,35,43.4,33.4,43.4z M35.2,42.1c0.6,0,1.2-0.5,1.8-1.4
		c0.7-1.2,1.4-2.4,1.8-3.7c0.7-1.7,1.2-3.4,1.7-5.2c0.5-1.9,0.9-4,1.3-6.2L44,12.3c-0.3-0.5-0.7-1-1.2-1.2c-0.4-0.2-0.9-0.4-1.4-0.4
		c-1.2,0.1-2.2,0.7-2.9,1.7c-1,1.3-1.8,2.7-2.3,4.3c-0.7,1.9-1.3,3.9-1.7,5.9c-0.5,2.1-0.8,4.3-1.1,6.5c-0.2,1.9-0.3,3.9-0.4,5.9
		c0,1.4,0.1,2.8,0.2,4.2c0.1,0.8,0.3,1.6,0.7,2.4C34.2,41.8,34.6,42.1,35.2,42.1L35.2,42.1z"/>
	<path class="st1" d="M56.4,16.2c0.1-0.6,0.2-1.2,0.3-1.7c0.1-0.5,0.1-1,0.1-1.4c0.1-0.5-0.1-1-0.4-1.4c-0.4-0.3-1-0.5-1.5-0.4h-0.7
		l0.1-0.6h8.1l-1.2,9.2h0.1c0.5-2,1.1-3.9,2-5.7c0.5-1.2,1.4-2.3,2.5-3.1c0.9-0.7,2-1,3.1-1c1.1-0.1,2.2,0.4,2.9,1.3
		c0.7,1,1,2.2,1,3.4c0,1-0.2,2-0.6,2.9c-0.4,0.7-1,1.3-1.7,1.7c-0.7,0.4-1.5,0.6-2.3,0.6c0-0.8,0.1-1.6,0.1-2.2s0-1.2,0-1.7
		c0-0.9,0-1.8-0.2-2.7c-0.1-0.5-0.3-0.9-0.6-1.2c-0.2-0.2-0.6-0.3-0.9-0.3c-0.7,0.1-1.3,0.4-1.7,0.9c-0.7,0.8-1.2,1.7-1.6,2.6
		c-0.6,1.3-1.1,2.7-1.5,4.1c-0.5,1.8-0.9,3.6-1.2,5.5l-3.2,17.9h-5.5L56.4,16.2z"/>
	<path class="st1" d="M90.8,43.4c-1.3,0.1-2.6-0.5-3.4-1.6c-0.9-1.2-1.3-2.7-1.2-4.3c0-1,0.1-2.1,0.2-3.1c0.1-1.1,0.3-2.4,0.5-3.8
		l1.4-8.5c0.1-0.5,0.2-1.2,0.3-2s0.2-1.6,0.3-2.4c0.1-0.8,0.1-1.6,0.1-2.3c0-0.5,0-1.1-0.1-1.6c-0.1-0.5-0.2-1-0.4-1.4
		c-0.2-0.4-0.6-0.7-1.1-0.6c-0.8,0-1.5,0.4-1.9,1.1c-0.7,0.9-1.3,1.8-1.7,2.9c-0.5,1.3-1,2.6-1.4,4c-0.4,1.4-0.7,2.9-0.9,4.3
		l-3.2,18.7h-5.5l4.5-26.6c0.1-0.6,0.2-1.1,0.2-1.6c0.1-0.4,0.1-0.9,0.1-1.4c0-0.5-0.1-1-0.3-1.4c-0.2-0.3-0.7-0.5-1.5-0.5h-0.7
		v-0.6h8.1l-1.1,8.2h0.1c0.5-1.8,1.2-3.5,2.1-5.2c0.6-1.1,1.4-2,2.5-2.7c0.9-0.5,1.9-0.8,3-0.8c1,0,1.9,0.3,2.7,0.9
		c0.7,0.6,1.3,1.4,1.6,2.3c0.3,1,0.4,2.1,0.4,3.1c0,1.2-0.1,2.3-0.3,3.5c-0.2,1.3-0.3,2.5-0.5,3.8L92.1,33c-0.2,1.2-0.4,2.3-0.5,3.3
		c-0.2,1-0.2,2-0.2,2.9c0,0.7,0.1,1.5,0.4,2.1c0.2,0.4,0.6,0.7,1.1,0.7c0.4,0,0.8-0.1,1.2-0.4c0.4-0.3,0.7-0.7,1-1.1
		c0.3-0.4,0.7-0.9,1-1.3l0.3,0.5c-0.6,1-1.4,1.9-2.3,2.6C93.1,43.1,91.9,43.5,90.8,43.4z"/>
	<path class="st1" d="M104.1,43.4c-1.2,0-2.4-0.4-3.3-1.3c-0.9-1-1.5-2.2-1.8-3.5c-0.4-1.7-0.6-3.5-0.6-5.3c0-2,0.2-4,0.5-6
		c0.3-2.1,0.8-4.2,1.5-6.2c0.6-2,1.5-3.8,2.6-5.6c0.9-1.6,2.2-2.9,3.6-4c1.4-1,3.1-1.6,4.8-1.5c1,0,2.1,0.2,3,0.7
		c0.8,0.4,1.5,0.9,2.1,1.5l3.5-1.5h0.4l-3.6,20.6c-0.1,0.6-0.2,1.3-0.3,2.2s-0.3,1.9-0.4,2.8c-0.1,0.8-0.2,1.6-0.2,2.4
		c0,0.7,0.1,1.4,0.4,2c0.2,0.5,0.7,0.8,1.2,0.7c0.5,0,0.9-0.2,1.3-0.5c0.5-0.4,1-0.9,1.3-1.4l0.2,0.6c-0.4,0.5-0.8,1-1.3,1.4
		c-0.5,0.5-1.1,0.9-1.8,1.2c-0.7,0.4-1.6,0.5-2.4,0.5c-1.1,0.1-2.1-0.4-2.8-1.3c-0.7-1.1-1.1-2.5-1-3.8c0-1,0.1-1.9,0.2-2.9
		c0.1-1,0.3-2,0.4-3.1h-0.2c-0.7,3-1.8,5.8-3.3,8.5C107.4,42.4,105.8,43.4,104.1,43.4z M105.8,42.1c0.6,0,1.2-0.5,1.8-1.4
		c0.8-1.2,1.4-2.4,1.8-3.7c0.7-1.7,1.2-3.4,1.7-5.2c0.5-1.9,0.9-4,1.3-6.2l2.2-13.4c-0.3-0.5-0.7-1-1.2-1.2
		c-0.4-0.2-0.9-0.4-1.4-0.4c-1.2,0.1-2.2,0.7-2.9,1.7c-1,1.3-1.8,2.7-2.3,4.3c-0.7,1.9-1.3,3.9-1.7,5.9c-0.5,2.1-0.8,4.3-1,6.5
		c-0.2,1.9-0.3,3.9-0.4,5.9c0,1.4,0.1,2.8,0.2,4.2c0.1,0.8,0.3,1.6,0.7,2.4C104.8,41.8,105.3,42.1,105.8,42.1L105.8,42.1z"/>
	<path class="st1" d="M129.5,43.4c-1.4,0-2.8-0.3-4-0.9c-1.1-0.5-1.9-1.4-2.5-2.4c-0.6-1-0.9-2.2-0.9-3.4c0-0.9,0.1-1.8,0.5-2.6
		c0.3-0.6,0.8-1.2,1.5-1.5c0.7-0.3,1.4-0.5,2.1-0.5c0,0.4,0,0.7,0,1.1v1.1c0,1.6,0.2,3.3,0.6,4.9c0.2,1,0.7,2,1.4,2.8
		c0.6,0.6,1.4,0.9,2.3,0.9c1.2,0,2.3-0.6,2.9-1.7c1.2-2.3,1.4-4.9,0.7-7.3c-0.3-0.9-0.8-1.7-1.4-2.4c-0.8-0.9-1.6-1.7-2.5-2.4
		c-1-0.8-1.9-1.7-2.7-2.6c-0.8-0.9-1.4-1.9-1.8-3c-1-2.9-0.8-6,0.4-8.8c0.7-1.4,1.7-2.5,3-3.3c1.4-0.8,3-1.2,4.6-1.2
		c1.4-0.1,2.9,0.2,4.2,0.9c0.9,0.5,1.7,1.3,2.1,2.2c0.4,0.9,0.6,1.9,0.6,2.9c0.1,1.1-0.3,2.3-1.1,3.1c-0.9,0.7-2,1-3.1,0.9
		c0-0.5,0.1-1,0.1-1.5s0-0.9,0-1.3c0.1-1.7-0.2-3.4-0.8-4.9c-0.4-1-1.4-1.7-2.5-1.7c-1.1,0-2.2,0.7-2.7,1.7
		c-0.8,1.3-1.2,2.9-1.1,4.5c0,0.9,0.1,1.8,0.4,2.6c0.3,0.7,0.8,1.4,1.3,2c0.8,0.8,1.6,1.5,2.4,2.2c1,0.8,2,1.7,2.9,2.6
		c0.7,0.9,1.3,1.9,1.7,2.9c0.4,1.3,0.6,2.6,0.6,4c0,1.8-0.3,3.6-1,5.3c-0.6,1.5-1.7,2.8-3.1,3.7C133.1,43.1,131.3,43.5,129.5,43.4z"
		/>
	<path class="st1" d="M149,43.4c-1.4,0-2.8-0.3-4-0.9c-1.1-0.5-1.9-1.4-2.5-2.4c-0.6-1-0.9-2.2-0.9-3.4c0-0.9,0.1-1.8,0.5-2.6
		c0.3-0.6,0.9-1.2,1.5-1.5c0.7-0.3,1.4-0.5,2.1-0.5c0,0.4-0.1,0.7-0.1,1.1v1.1c0,1.6,0.2,3.3,0.6,4.9c0.2,1,0.7,2,1.4,2.8
		c0.6,0.6,1.4,0.9,2.3,0.9c1.2,0,2.3-0.6,2.9-1.7c1.2-2.3,1.4-4.9,0.7-7.3c-0.3-0.9-0.8-1.7-1.4-2.4c-0.8-0.9-1.6-1.7-2.5-2.4
		c-1-0.8-1.9-1.7-2.7-2.6c-0.8-0.9-1.4-1.9-1.8-3c-1-2.9-0.8-6,0.4-8.8c0.7-1.4,1.7-2.5,3-3.3c1.4-0.8,3-1.2,4.6-1.2
		c1.4-0.1,2.9,0.2,4.2,0.9c0.9,0.5,1.6,1.3,2.1,2.2c0.4,0.9,0.6,1.9,0.6,2.9c0.1,1.1-0.3,2.3-1.1,3.1c-0.9,0.7-2,1-3.1,0.9
		c0-0.5,0.1-1,0.1-1.5s0-0.9,0-1.3c0.1-1.7-0.2-3.4-0.8-4.9c-0.4-1-1.4-1.7-2.5-1.7c-1.1,0-2.2,0.7-2.7,1.7
		c-0.8,1.3-1.2,2.9-1.1,4.5c0,0.9,0.1,1.8,0.4,2.6c0.3,0.7,0.8,1.4,1.4,2c0.8,0.8,1.6,1.5,2.4,2.2c1,0.8,2,1.7,2.9,2.6
		c0.7,0.9,1.3,1.9,1.7,2.9c0.4,1.3,0.6,2.6,0.6,4c0,1.8-0.3,3.6-1,5.3c-0.6,1.5-1.7,2.8-3.1,3.7C152.6,43.1,150.8,43.5,149,43.4z"/>
	<path class="st1" d="M170.7,43.4c-1.6,0-3.2-0.4-4.6-1.3c-1.4-1-2.4-2.4-3-4c-0.8-2.2-1.1-4.5-1.1-6.9c0-1.9,0.2-3.7,0.5-5.5
		c0.3-1.9,0.8-3.8,1.5-5.7c0.6-1.8,1.5-3.5,2.6-5c1-1.4,2.2-2.6,3.7-3.6c1.5-0.9,3.1-1.4,4.9-1.3c1.7-0.1,3.3,0.6,4.4,1.8
		c1.1,1.4,1.6,3.2,1.5,5c0.1,2.1-0.5,4.1-1.6,5.9c-1,1.6-2.5,3-4.2,3.8c-1.9,0.9-3.9,1.4-6,1.3h-1.6c0,0.2-0.1,0.6-0.1,1.1
		s-0.1,1-0.1,1.6s0,1,0,1.4c0,2,0.1,4.1,0.5,6.1c0.2,1.3,0.7,2.4,1.4,3.5c0.5,0.7,1.3,1.1,2.2,1.1c1.5-0.1,2.8-1,3.5-2.3
		c1-1.9,1.7-3.9,2.1-5.9c0.2,0.1,0.4,0.3,0.5,0.6c0.2,0.5,0.2,1.1,0.2,1.6c-0.1,2.3-1.3,4.5-3.2,5.8
		C173.5,43.1,172.1,43.5,170.7,43.4z M168.6,27.4c1.1,0,2.3-0.3,3.2-1c1-0.7,1.8-1.7,2.4-2.8c0.7-1.2,1.2-2.6,1.5-3.9
		c0.3-1.5,0.5-3,0.5-4.5c0.1-1.1-0.1-2.3-0.5-3.4c-0.3-0.6-0.9-1-1.6-1c-0.8,0.1-1.5,0.5-2,1.1c-0.8,1-1.4,2.1-1.8,3.3
		c-0.6,1.7-1.1,3.4-1.5,5.2c-0.4,2-0.8,4.3-1.1,6.9L168.6,27.4z"/>
</g>
</svg>
